<mxfile host="Electron" modified="2023-06-03T09:02:42.762Z" agent="Mozilla/5.0 (Windows NT 10.0; Win64; x64) AppleWebKit/537.36 (KHTML, like Gecko) draw.io/21.2.8 Chrome/112.0.5615.165 Electron/24.2.0 Safari/537.36" etag="lwOa5oNJHvKlk2FpP6rX" version="21.2.8" type="device" pages="2">
  <diagram name="Страница 1" id="geIFjYjPnE_OeMnOWGkT">
    <mxGraphModel dx="2876" dy="1206" grid="1" gridSize="10" guides="1" tooltips="1" connect="1" arrows="1" fold="1" page="1" pageScale="1" pageWidth="827" pageHeight="1169" math="0" shadow="0">
      <root>
        <mxCell id="0" />
        <mxCell id="1" parent="0" />
        <mxCell id="pGKbNOyH_VplZDwizvX3-1" value="пользователь&amp;nbsp;" style="rounded=0;whiteSpace=wrap;html=1;" parent="1" vertex="1">
          <mxGeometry x="250" y="270" width="120" height="60" as="geometry" />
        </mxCell>
        <mxCell id="TDMM4SeY3odUwWHmLBrj-1" value="аккаунт&amp;nbsp;" style="rounded=0;whiteSpace=wrap;html=1;" parent="1" vertex="1">
          <mxGeometry x="450" y="270" width="120" height="60" as="geometry" />
        </mxCell>
        <mxCell id="TDMM4SeY3odUwWHmLBrj-2" value="" style="endArrow=classic;html=1;rounded=0;exitX=1;exitY=0.5;exitDx=0;exitDy=0;entryX=0;entryY=0.5;entryDx=0;entryDy=0;" parent="1" source="pGKbNOyH_VplZDwizvX3-1" target="TDMM4SeY3odUwWHmLBrj-1" edge="1">
          <mxGeometry width="50" height="50" relative="1" as="geometry">
            <mxPoint x="390" y="430" as="sourcePoint" />
            <mxPoint x="440" y="380" as="targetPoint" />
          </mxGeometry>
        </mxCell>
        <mxCell id="TDMM4SeY3odUwWHmLBrj-3" value="пополнение баланса&amp;nbsp;" style="rounded=0;whiteSpace=wrap;html=1;" parent="1" vertex="1">
          <mxGeometry x="640" y="200" width="120" height="60" as="geometry" />
        </mxCell>
        <mxCell id="TDMM4SeY3odUwWHmLBrj-4" value="" style="endArrow=classic;html=1;rounded=0;exitX=0;exitY=0.5;exitDx=0;exitDy=0;entryX=1;entryY=0.5;entryDx=0;entryDy=0;" parent="1" source="TDMM4SeY3odUwWHmLBrj-3" target="TDMM4SeY3odUwWHmLBrj-1" edge="1">
          <mxGeometry width="50" height="50" relative="1" as="geometry">
            <mxPoint x="390" y="430" as="sourcePoint" />
            <mxPoint x="440" y="380" as="targetPoint" />
            <Array as="points">
              <mxPoint x="600" y="230" />
              <mxPoint x="600" y="300" />
            </Array>
          </mxGeometry>
        </mxCell>
        <mxCell id="TDMM4SeY3odUwWHmLBrj-5" value="" style="endArrow=classic;html=1;rounded=0;exitX=0.5;exitY=1;exitDx=0;exitDy=0;" parent="1" source="TDMM4SeY3odUwWHmLBrj-1" target="TDMM4SeY3odUwWHmLBrj-6" edge="1">
          <mxGeometry width="50" height="50" relative="1" as="geometry">
            <mxPoint x="390" y="430" as="sourcePoint" />
            <mxPoint x="510" y="450" as="targetPoint" />
          </mxGeometry>
        </mxCell>
        <mxCell id="TDMM4SeY3odUwWHmLBrj-6" value="история сделок пользователя&amp;nbsp;" style="rounded=0;whiteSpace=wrap;html=1;" parent="1" vertex="1">
          <mxGeometry x="450" y="420" width="120" height="60" as="geometry" />
        </mxCell>
        <mxCell id="TDMM4SeY3odUwWHmLBrj-7" value="заказы на день" style="rounded=0;whiteSpace=wrap;html=1;" parent="1" vertex="1">
          <mxGeometry x="-310" y="470" width="120" height="60" as="geometry" />
        </mxCell>
        <mxCell id="TDMM4SeY3odUwWHmLBrj-8" value="сотрудник&amp;nbsp;" style="rounded=0;whiteSpace=wrap;html=1;" parent="1" vertex="1">
          <mxGeometry x="-500" y="400" width="120" height="60" as="geometry" />
        </mxCell>
        <mxCell id="TDMM4SeY3odUwWHmLBrj-9" value="машина&amp;nbsp;" style="rounded=0;whiteSpace=wrap;html=1;" parent="1" vertex="1">
          <mxGeometry x="-310" y="330" width="120" height="60" as="geometry" />
        </mxCell>
        <mxCell id="TDMM4SeY3odUwWHmLBrj-10" value="история сделок&amp;nbsp;" style="rounded=0;whiteSpace=wrap;html=1;" parent="1" vertex="1">
          <mxGeometry x="450" y="570" width="120" height="60" as="geometry" />
        </mxCell>
        <mxCell id="TDMM4SeY3odUwWHmLBrj-11" value="оплаченный заказ&amp;nbsp;" style="rounded=0;whiteSpace=wrap;html=1;" parent="1" vertex="1">
          <mxGeometry x="450" y="680" width="120" height="60" as="geometry" />
        </mxCell>
        <mxCell id="TDMM4SeY3odUwWHmLBrj-12" value="оплачиваемый заказ&amp;nbsp;" style="rounded=0;whiteSpace=wrap;html=1;" parent="1" vertex="1">
          <mxGeometry x="10" y="860" width="120" height="60" as="geometry" />
        </mxCell>
        <mxCell id="TDMM4SeY3odUwWHmLBrj-13" value="отменённый заказ&amp;nbsp;&amp;nbsp;" style="rounded=0;whiteSpace=wrap;html=1;" parent="1" vertex="1">
          <mxGeometry x="240" y="780" width="120" height="60" as="geometry" />
        </mxCell>
        <mxCell id="fpAQPMwGpUmbMZwcHKRn-29" style="edgeStyle=orthogonalEdgeStyle;rounded=0;orthogonalLoop=1;jettySize=auto;html=1;entryX=0.417;entryY=1;entryDx=0;entryDy=0;entryPerimeter=0;" edge="1" parent="1" source="TDMM4SeY3odUwWHmLBrj-14" target="TDMM4SeY3odUwWHmLBrj-11">
          <mxGeometry relative="1" as="geometry" />
        </mxCell>
        <mxCell id="TDMM4SeY3odUwWHmLBrj-14" value="заказ&amp;nbsp;" style="rounded=0;whiteSpace=wrap;html=1;" parent="1" vertex="1">
          <mxGeometry x="440" y="880" width="120" height="60" as="geometry" />
        </mxCell>
        <mxCell id="fpAQPMwGpUmbMZwcHKRn-1" value="продукт&amp;nbsp;" style="rounded=0;whiteSpace=wrap;html=1;" vertex="1" parent="1">
          <mxGeometry x="440" y="1200" width="120" height="60" as="geometry" />
        </mxCell>
        <mxCell id="fpAQPMwGpUmbMZwcHKRn-2" value="скидка на продукт&amp;nbsp;" style="rounded=0;whiteSpace=wrap;html=1;" vertex="1" parent="1">
          <mxGeometry x="842.5" y="1210" width="115" height="60" as="geometry" />
        </mxCell>
        <mxCell id="fpAQPMwGpUmbMZwcHKRn-3" value="скидка на категоию&amp;nbsp;" style="rounded=0;whiteSpace=wrap;html=1;" vertex="1" parent="1">
          <mxGeometry x="840" y="1370" width="120" height="60" as="geometry" />
        </mxCell>
        <mxCell id="fpAQPMwGpUmbMZwcHKRn-4" value="способ оплаты&amp;nbsp;" style="rounded=0;whiteSpace=wrap;html=1;" vertex="1" parent="1">
          <mxGeometry x="640" y="880" width="120" height="60" as="geometry" />
        </mxCell>
        <mxCell id="fpAQPMwGpUmbMZwcHKRn-5" value="коментарии&amp;nbsp;" style="rounded=0;whiteSpace=wrap;html=1;" vertex="1" parent="1">
          <mxGeometry x="820" y="1050" width="120" height="60" as="geometry" />
        </mxCell>
        <mxCell id="fpAQPMwGpUmbMZwcHKRn-6" value="акции&amp;nbsp;" style="rounded=0;whiteSpace=wrap;html=1;" vertex="1" parent="1">
          <mxGeometry x="200" y="1030" width="120" height="60" as="geometry" />
        </mxCell>
        <mxCell id="fpAQPMwGpUmbMZwcHKRn-7" value="категории продуктов&amp;nbsp;" style="rounded=0;whiteSpace=wrap;html=1;" vertex="1" parent="1">
          <mxGeometry x="430" y="1340" width="120" height="60" as="geometry" />
        </mxCell>
        <mxCell id="fpAQPMwGpUmbMZwcHKRn-8" value="производитель&amp;nbsp;" style="rounded=0;whiteSpace=wrap;html=1;" vertex="1" parent="1">
          <mxGeometry x="140" y="1330" width="120" height="60" as="geometry" />
        </mxCell>
        <mxCell id="fpAQPMwGpUmbMZwcHKRn-11" value="" style="endArrow=classic;html=1;rounded=0;exitX=1;exitY=0.5;exitDx=0;exitDy=0;entryX=0;entryY=0.5;entryDx=0;entryDy=0;" edge="1" parent="1" source="fpAQPMwGpUmbMZwcHKRn-8" target="fpAQPMwGpUmbMZwcHKRn-1">
          <mxGeometry width="50" height="50" relative="1" as="geometry">
            <mxPoint x="380" y="1130" as="sourcePoint" />
            <mxPoint x="430" y="1080" as="targetPoint" />
            <Array as="points">
              <mxPoint x="320" y="1360" />
              <mxPoint x="320" y="1230" />
            </Array>
          </mxGeometry>
        </mxCell>
        <mxCell id="fpAQPMwGpUmbMZwcHKRn-12" value="" style="endArrow=classic;html=1;rounded=0;exitX=1;exitY=0.5;exitDx=0;exitDy=0;" edge="1" parent="1" source="fpAQPMwGpUmbMZwcHKRn-8">
          <mxGeometry width="50" height="50" relative="1" as="geometry">
            <mxPoint x="380" y="1130" as="sourcePoint" />
            <mxPoint x="430" y="1360" as="targetPoint" />
          </mxGeometry>
        </mxCell>
        <mxCell id="fpAQPMwGpUmbMZwcHKRn-13" value="общая скидка&amp;nbsp;" style="rounded=0;whiteSpace=wrap;html=1;" vertex="1" parent="1">
          <mxGeometry x="620" y="1250" width="120" height="60" as="geometry" />
        </mxCell>
        <mxCell id="fpAQPMwGpUmbMZwcHKRn-14" value="" style="endArrow=classic;html=1;rounded=0;exitX=0.5;exitY=0;exitDx=0;exitDy=0;entryX=1;entryY=1;entryDx=0;entryDy=0;" edge="1" parent="1" source="fpAQPMwGpUmbMZwcHKRn-3" target="fpAQPMwGpUmbMZwcHKRn-13">
          <mxGeometry width="50" height="50" relative="1" as="geometry">
            <mxPoint x="770" y="1260" as="sourcePoint" />
            <mxPoint x="430" y="1080" as="targetPoint" />
          </mxGeometry>
        </mxCell>
        <mxCell id="fpAQPMwGpUmbMZwcHKRn-15" value="" style="endArrow=classic;html=1;rounded=0;exitX=1;exitY=0.5;exitDx=0;exitDy=0;" edge="1" parent="1" source="fpAQPMwGpUmbMZwcHKRn-7">
          <mxGeometry width="50" height="50" relative="1" as="geometry">
            <mxPoint x="380" y="1130" as="sourcePoint" />
            <mxPoint x="840" y="1400" as="targetPoint" />
            <Array as="points">
              <mxPoint x="720" y="1370" />
              <mxPoint x="720" y="1400" />
            </Array>
          </mxGeometry>
        </mxCell>
        <mxCell id="fpAQPMwGpUmbMZwcHKRn-16" value="" style="endArrow=classic;html=1;rounded=0;exitX=0;exitY=0.5;exitDx=0;exitDy=0;entryX=1;entryY=0;entryDx=0;entryDy=0;" edge="1" parent="1" source="fpAQPMwGpUmbMZwcHKRn-2" target="fpAQPMwGpUmbMZwcHKRn-13">
          <mxGeometry width="50" height="50" relative="1" as="geometry">
            <mxPoint x="380" y="1130" as="sourcePoint" />
            <mxPoint x="430" y="1080" as="targetPoint" />
          </mxGeometry>
        </mxCell>
        <mxCell id="fpAQPMwGpUmbMZwcHKRn-17" value="" style="endArrow=classic;html=1;rounded=0;exitX=1;exitY=0.5;exitDx=0;exitDy=0;entryX=0.5;entryY=0;entryDx=0;entryDy=0;" edge="1" parent="1" source="fpAQPMwGpUmbMZwcHKRn-1" target="fpAQPMwGpUmbMZwcHKRn-2">
          <mxGeometry width="50" height="50" relative="1" as="geometry">
            <mxPoint x="380" y="1130" as="sourcePoint" />
            <mxPoint x="430" y="1080" as="targetPoint" />
            <Array as="points">
              <mxPoint x="580" y="1230" />
              <mxPoint x="580" y="1140" />
              <mxPoint x="900" y="1140" />
            </Array>
          </mxGeometry>
        </mxCell>
        <mxCell id="fpAQPMwGpUmbMZwcHKRn-20" value="" style="endArrow=classic;html=1;rounded=0;exitX=0.5;exitY=0;exitDx=0;exitDy=0;entryX=0.5;entryY=1;entryDx=0;entryDy=0;" edge="1" parent="1" source="fpAQPMwGpUmbMZwcHKRn-1" target="TDMM4SeY3odUwWHmLBrj-14">
          <mxGeometry width="50" height="50" relative="1" as="geometry">
            <mxPoint x="380" y="1130" as="sourcePoint" />
            <mxPoint x="430" y="1080" as="targetPoint" />
          </mxGeometry>
        </mxCell>
        <mxCell id="fpAQPMwGpUmbMZwcHKRn-21" value="" style="endArrow=classic;html=1;rounded=0;exitX=0.5;exitY=0;exitDx=0;exitDy=0;entryX=1;entryY=0.5;entryDx=0;entryDy=0;" edge="1" parent="1" source="fpAQPMwGpUmbMZwcHKRn-1" target="fpAQPMwGpUmbMZwcHKRn-6">
          <mxGeometry width="50" height="50" relative="1" as="geometry">
            <mxPoint x="380" y="1130" as="sourcePoint" />
            <mxPoint x="430" y="1080" as="targetPoint" />
            <Array as="points">
              <mxPoint x="480" y="1200" />
              <mxPoint x="480" y="1160" />
              <mxPoint x="440" y="1160" />
              <mxPoint x="440" y="1060" />
            </Array>
          </mxGeometry>
        </mxCell>
        <mxCell id="fpAQPMwGpUmbMZwcHKRn-23" value="" style="endArrow=classic;html=1;rounded=0;exitX=0.5;exitY=0;exitDx=0;exitDy=0;entryX=0;entryY=0.5;entryDx=0;entryDy=0;" edge="1" parent="1" source="fpAQPMwGpUmbMZwcHKRn-6" target="TDMM4SeY3odUwWHmLBrj-14">
          <mxGeometry width="50" height="50" relative="1" as="geometry">
            <mxPoint x="380" y="1130" as="sourcePoint" />
            <mxPoint x="430" y="1080" as="targetPoint" />
            <Array as="points">
              <mxPoint x="260" y="910" />
            </Array>
          </mxGeometry>
        </mxCell>
        <mxCell id="fpAQPMwGpUmbMZwcHKRn-24" value="" style="endArrow=classic;html=1;rounded=0;exitX=0;exitY=0.5;exitDx=0;exitDy=0;entryX=1;entryY=0.5;entryDx=0;entryDy=0;" edge="1" parent="1" source="fpAQPMwGpUmbMZwcHKRn-4" target="TDMM4SeY3odUwWHmLBrj-14">
          <mxGeometry width="50" height="50" relative="1" as="geometry">
            <mxPoint x="380" y="1130" as="sourcePoint" />
            <mxPoint x="430" y="1080" as="targetPoint" />
          </mxGeometry>
        </mxCell>
        <mxCell id="fpAQPMwGpUmbMZwcHKRn-30" value="" style="endArrow=classic;html=1;rounded=0;exitX=0;exitY=0;exitDx=0;exitDy=0;entryX=1.017;entryY=0.383;entryDx=0;entryDy=0;entryPerimeter=0;" edge="1" parent="1" source="TDMM4SeY3odUwWHmLBrj-14" target="TDMM4SeY3odUwWHmLBrj-12">
          <mxGeometry width="50" height="50" relative="1" as="geometry">
            <mxPoint x="380" y="960" as="sourcePoint" />
            <mxPoint x="430" y="910" as="targetPoint" />
          </mxGeometry>
        </mxCell>
        <mxCell id="fpAQPMwGpUmbMZwcHKRn-31" value="" style="endArrow=classic;html=1;rounded=0;exitX=0.45;exitY=-0.033;exitDx=0;exitDy=0;exitPerimeter=0;entryX=0;entryY=0.5;entryDx=0;entryDy=0;" edge="1" parent="1" source="TDMM4SeY3odUwWHmLBrj-12" target="TDMM4SeY3odUwWHmLBrj-13">
          <mxGeometry width="50" height="50" relative="1" as="geometry">
            <mxPoint x="380" y="960" as="sourcePoint" />
            <mxPoint x="430" y="910" as="targetPoint" />
            <Array as="points">
              <mxPoint x="64" y="810" />
            </Array>
          </mxGeometry>
        </mxCell>
        <mxCell id="fpAQPMwGpUmbMZwcHKRn-32" value="" style="endArrow=classic;html=1;rounded=0;exitX=0;exitY=0.5;exitDx=0;exitDy=0;entryX=0.5;entryY=0;entryDx=0;entryDy=0;" edge="1" parent="1" source="TDMM4SeY3odUwWHmLBrj-11" target="TDMM4SeY3odUwWHmLBrj-13">
          <mxGeometry width="50" height="50" relative="1" as="geometry">
            <mxPoint x="380" y="790" as="sourcePoint" />
            <mxPoint x="430" y="740" as="targetPoint" />
            <Array as="points">
              <mxPoint x="300" y="710" />
            </Array>
          </mxGeometry>
        </mxCell>
        <mxCell id="fpAQPMwGpUmbMZwcHKRn-34" value="заказы с доставкой&amp;nbsp;" style="rounded=0;whiteSpace=wrap;html=1;" vertex="1" parent="1">
          <mxGeometry y="570" width="120" height="60" as="geometry" />
        </mxCell>
        <mxCell id="fpAQPMwGpUmbMZwcHKRn-35" value="" style="endArrow=classic;html=1;rounded=0;exitX=0.5;exitY=0;exitDx=0;exitDy=0;entryX=0.5;entryY=1;entryDx=0;entryDy=0;" edge="1" parent="1" source="TDMM4SeY3odUwWHmLBrj-11" target="TDMM4SeY3odUwWHmLBrj-10">
          <mxGeometry width="50" height="50" relative="1" as="geometry">
            <mxPoint x="380" y="630" as="sourcePoint" />
            <mxPoint x="430" y="580" as="targetPoint" />
          </mxGeometry>
        </mxCell>
        <mxCell id="fpAQPMwGpUmbMZwcHKRn-36" value="" style="endArrow=classic;html=1;rounded=0;exitX=0.5;exitY=0;exitDx=0;exitDy=0;entryX=0.5;entryY=1;entryDx=0;entryDy=0;" edge="1" parent="1" source="TDMM4SeY3odUwWHmLBrj-10" target="TDMM4SeY3odUwWHmLBrj-6">
          <mxGeometry width="50" height="50" relative="1" as="geometry">
            <mxPoint x="380" y="630" as="sourcePoint" />
            <mxPoint x="430" y="580" as="targetPoint" />
          </mxGeometry>
        </mxCell>
        <mxCell id="fpAQPMwGpUmbMZwcHKRn-38" value="" style="endArrow=classic;html=1;rounded=0;exitX=0.417;exitY=0;exitDx=0;exitDy=0;exitPerimeter=0;" edge="1" parent="1" source="TDMM4SeY3odUwWHmLBrj-12" target="fpAQPMwGpUmbMZwcHKRn-34">
          <mxGeometry width="50" height="50" relative="1" as="geometry">
            <mxPoint x="380" y="630" as="sourcePoint" />
            <mxPoint x="430" y="580" as="targetPoint" />
          </mxGeometry>
        </mxCell>
        <mxCell id="fpAQPMwGpUmbMZwcHKRn-39" value="" style="endArrow=classic;html=1;rounded=0;exitX=0;exitY=0.5;exitDx=0;exitDy=0;entryX=1;entryY=0.5;entryDx=0;entryDy=0;" edge="1" parent="1" source="TDMM4SeY3odUwWHmLBrj-11" target="fpAQPMwGpUmbMZwcHKRn-34">
          <mxGeometry width="50" height="50" relative="1" as="geometry">
            <mxPoint x="380" y="630" as="sourcePoint" />
            <mxPoint x="430" y="580" as="targetPoint" />
            <Array as="points">
              <mxPoint x="160" y="710" />
              <mxPoint x="160" y="600" />
            </Array>
          </mxGeometry>
        </mxCell>
        <mxCell id="fpAQPMwGpUmbMZwcHKRn-40" value="" style="endArrow=classic;html=1;rounded=0;exitX=0;exitY=0.5;exitDx=0;exitDy=0;entryX=0.5;entryY=1;entryDx=0;entryDy=0;" edge="1" parent="1" source="fpAQPMwGpUmbMZwcHKRn-34" target="TDMM4SeY3odUwWHmLBrj-7">
          <mxGeometry width="50" height="50" relative="1" as="geometry">
            <mxPoint y="630" as="sourcePoint" />
            <mxPoint x="50" y="580" as="targetPoint" />
            <Array as="points">
              <mxPoint x="-250" y="600" />
            </Array>
          </mxGeometry>
        </mxCell>
        <mxCell id="fpAQPMwGpUmbMZwcHKRn-41" value="" style="endArrow=classic;html=1;rounded=0;exitX=0.5;exitY=1;exitDx=0;exitDy=0;entryX=0.5;entryY=0;entryDx=0;entryDy=0;" edge="1" parent="1" source="TDMM4SeY3odUwWHmLBrj-9" target="TDMM4SeY3odUwWHmLBrj-7">
          <mxGeometry width="50" height="50" relative="1" as="geometry">
            <mxPoint y="630" as="sourcePoint" />
            <mxPoint x="50" y="580" as="targetPoint" />
          </mxGeometry>
        </mxCell>
        <mxCell id="fpAQPMwGpUmbMZwcHKRn-42" value="" style="endArrow=classic;html=1;rounded=0;exitX=1;exitY=0.5;exitDx=0;exitDy=0;entryX=0;entryY=0.5;entryDx=0;entryDy=0;" edge="1" parent="1" source="TDMM4SeY3odUwWHmLBrj-8" target="TDMM4SeY3odUwWHmLBrj-7">
          <mxGeometry width="50" height="50" relative="1" as="geometry">
            <mxPoint y="630" as="sourcePoint" />
            <mxPoint x="50" y="580" as="targetPoint" />
            <Array as="points">
              <mxPoint x="-340" y="430" />
              <mxPoint x="-340" y="500" />
            </Array>
          </mxGeometry>
        </mxCell>
        <mxCell id="fpAQPMwGpUmbMZwcHKRn-43" value="" style="endArrow=classic;html=1;rounded=0;exitX=0;exitY=0.5;exitDx=0;exitDy=0;entryX=0.5;entryY=1;entryDx=0;entryDy=0;" edge="1" parent="1" source="fpAQPMwGpUmbMZwcHKRn-13" target="fpAQPMwGpUmbMZwcHKRn-1">
          <mxGeometry width="50" height="50" relative="1" as="geometry">
            <mxPoint x="190" y="1290" as="sourcePoint" />
            <mxPoint x="240" y="1240" as="targetPoint" />
            <Array as="points">
              <mxPoint x="500" y="1280" />
            </Array>
          </mxGeometry>
        </mxCell>
        <mxCell id="fpAQPMwGpUmbMZwcHKRn-44" value="" style="endArrow=classic;html=1;rounded=0;exitX=0.75;exitY=1;exitDx=0;exitDy=0;entryX=0.5;entryY=0;entryDx=0;entryDy=0;" edge="1" parent="1" source="TDMM4SeY3odUwWHmLBrj-1" target="fpAQPMwGpUmbMZwcHKRn-5">
          <mxGeometry width="50" height="50" relative="1" as="geometry">
            <mxPoint x="200" y="570" as="sourcePoint" />
            <mxPoint x="250" y="520" as="targetPoint" />
            <Array as="points">
              <mxPoint x="880" y="330" />
            </Array>
          </mxGeometry>
        </mxCell>
        <mxCell id="fpAQPMwGpUmbMZwcHKRn-45" value="" style="endArrow=classic;html=1;rounded=0;exitX=0;exitY=0.5;exitDx=0;exitDy=0;entryX=0.75;entryY=0;entryDx=0;entryDy=0;" edge="1" parent="1" source="fpAQPMwGpUmbMZwcHKRn-5" target="fpAQPMwGpUmbMZwcHKRn-1">
          <mxGeometry width="50" height="50" relative="1" as="geometry">
            <mxPoint x="310" y="1190" as="sourcePoint" />
            <mxPoint x="360" y="1140" as="targetPoint" />
            <Array as="points">
              <mxPoint x="530" y="1080" />
            </Array>
          </mxGeometry>
        </mxCell>
      </root>
    </mxGraphModel>
  </diagram>
  <diagram id="Uux48HykHQynCecnKqJx" name="Страница 2">
    <mxGraphModel dx="1434" dy="844" grid="1" gridSize="10" guides="1" tooltips="1" connect="1" arrows="1" fold="1" page="1" pageScale="1" pageWidth="827" pageHeight="1169" math="0" shadow="0">
      <root>
        <mxCell id="0" />
        <mxCell id="1" parent="0" />
      </root>
    </mxGraphModel>
  </diagram>
</mxfile>
